Coordinates
version=1
nRows=26
nColumns=24
inDegrees=yes

Units are S.I. units (second, meters, Newtons, ...)
Angles are in degrees.

endheader
time	pelvis_tilt	pelvis_list	pelvis_rotation	pelvis_tx	pelvis_ty	pelvis_tz	hip_flexion_r	hip_adduction_r	hip_rotation_r	knee_angle_r	ankle_angle_r	subtalar_angle_r	mtp_angle_r	hip_flexion_l	hip_adduction_l	hip_rotation_l	knee_angle_l	ankle_angle_l	subtalar_angle_l	mtp_angle_l	lumbar_extension	lumbar_bending	lumbar_rotation
      0.50400000	     -2.33600310	      5.45786055	      2.77078662	     -0.87038023	      0.97884842	      0.29536696	     28.02868156	     -4.74096261	     -6.63855614	     -5.85656315	      7.20432794	     -2.79645442	      0.84205688	    -13.39479651	      8.90556547	      5.62903435	     -6.16224489	      9.91661875	     -4.62702773	      0.17314171	     -0.25371334	     -3.84434996	     -1.14807352
      0.50816667	     -2.44673463	      5.48444505	      2.86210605	     -0.86471844	      0.97832803	      0.29571124	     28.11229600	     -4.75102583	     -6.73544668	     -6.01771725	      7.01821573	     -3.19489827	      6.43354321	    -13.23678287	      8.89516694	      5.47852702	     -6.86293808	      9.95769587	     -4.36260955	      0.31391975	     -0.10432589	     -3.89818617	     -1.12996622
      0.51233333	     -2.50527024	      5.46834843	      2.93797175	     -0.85891696	      0.97785218	      0.29602783	     28.14736887	     -4.72513796	     -6.90874534	     -6.27518375	      6.92174899	     -3.25833187	      6.44738692	    -13.28590799	      8.83281835	      5.42957661	     -7.32677781	      9.90578827	     -4.23819977	      0.33819275	      0.00908174	     -3.87176890	     -1.25643294
      0.51650000	     -2.58037932	      5.45557212	      3.00515507	     -0.85310622	      0.97738515	      0.29637419	     28.20524588	     -4.69681882	     -7.01289068	     -6.59566274	      6.79058577	     -3.47053178	      6.46107950	    -13.31258155	      8.77555303	      5.39588288	     -7.79029971	      9.81129770	     -4.11844864	      0.37318131	      0.13460533	     -3.84903714	     -1.30904888
      0.52066667	     -2.63969478	      5.41714014	      3.07007739	     -0.84722977	      0.97697520	      0.29673902	     28.22557269	     -4.63951364	     -7.07528334	     -6.93186100	      6.60121010	     -3.78204901	      6.48216010	    -13.32853099	      8.68816390	      5.30294542	     -8.31010132	      9.72862554	     -3.95266770	      0.43634602	      0.25416791	     -3.79756277	     -1.38139022
      0.52483333	     -2.71137271	      5.38937248	      3.12058473	     -0.84135138	      0.97658250	      0.29714555	     28.24934641	     -4.58051055	     -7.04132643	     -7.28262596	      6.39468990	     -4.19443559	      6.52147423	    -13.28965117	      8.61647156	      5.16275644	     -8.90450932	      9.62953567	     -3.80854224	      0.55942506	      0.39371576	     -3.77178446	     -1.45262876
      0.52900000	     -2.78136289	      5.35102897	      3.16964348	     -0.83541781	      0.97622943	      0.29753959	     28.27416429	     -4.51608207	     -7.02424406	     -7.68302691	      6.12805514	     -4.60804712	      6.56552801	    -13.25678986	      8.53573857	      5.06556787	     -9.48652050	      9.48572246	     -3.70389999	      0.71653974	      0.53026201	     -3.71928196	     -1.50113974
      0.53316667	     -2.86740563	      5.30569004	      3.21302382	     -0.82945432	      0.97588550	      0.29794302	     28.31089087	     -4.44202587	     -6.98017767	     -8.10510106	      5.82974145	     -5.06112635	      6.61521666	    -13.18026134	      8.45090360	      4.94764682	    -10.11608806	      9.31805946	     -3.59939726	      0.91654932	      0.69312405	     -3.66109412	     -1.54217134
      0.53733333	     -2.92887386	      5.24236977	      3.22739987	     -0.82343823	      0.97559813	      0.29838668	     28.31821537	     -4.33402517	     -6.88686252	     -8.54872848	      5.51930134	     -5.65251226	      6.69992473	    -13.12998863	      8.34977740	      4.80792413	    -10.73914194	      9.11527802	     -3.48362421	      1.28061430	      0.83745789	     -3.56923587	     -1.57788125
      0.54150000	     -3.03030761	      5.19235714	      3.26711987	     -0.81741078	      0.97531348	      0.29878646	     28.35656539	     -4.25691628	     -6.81829605	     -8.99106826	      5.13694615	     -6.08943480	      6.76902747	    -12.99453202	      8.26658288	      4.69892483	    -11.44049748	      8.86625996	     -3.45807709	      1.63684947	      1.02173193	     -3.50812075	     -1.59816941
      0.54566667	     -3.09103490	      5.12745714	      3.28749844	     -0.81130891	      0.97511977	      0.29917132	     28.36346662	     -4.17044506	     -6.83699132	     -9.48005189	      4.71184214	     -6.37898334	      6.78945839	    -12.92381674	      8.17219173	      4.63102474	    -12.09350000	      8.50442297	     -3.44889898	      1.79032128	      1.17086042	     -3.40938059	     -1.59616422
      0.54983333	     -3.16606908	      5.03262320	      3.29367533	     -0.80523181	      0.97494619	      0.29966544	     28.33261894	     -4.01275233	     -6.61353929	     -9.87922821	      4.37442085	     -7.21867329	      6.89551624	    -12.75127238	      8.03764261	      4.40152467	    -12.89992983	      8.19861761	     -3.33217220	      2.51606783	      1.33904619	     -3.29165217	     -1.61151999
      0.55400000	     -3.24365114	      4.96018641	      3.28809189	     -0.79910711	      0.97478518	      0.30008718	     28.34645114	     -3.90654591	     -6.57136175	    -10.36237522	      3.88918178	     -7.52718493	      7.51647555	    -12.58536408	      7.94194355	      4.24326613	    -13.67672196	      7.75488040	     -3.43531543	      7.40414526	      1.51022618	     -3.19105714	     -1.57304989
      0.55816667	     -3.30794129	      4.87337559	      3.28146679	     -0.79294068	      0.97469609	      0.30048877	     28.34107926	     -3.79192823	     -6.55779615	    -10.85744092	      3.45465934	     -7.76868198	      7.50788684	    -12.42450496	      7.83688547	      4.13037304	    -14.46864962	      7.28787361	     -3.51602677	      7.42968357	      1.67290664	     -3.05434526	     -1.57814644
      0.56233333	     -3.40899234	      4.77887288	      3.26640964	     -0.78682337	      0.97459675	      0.30096548	     28.34864121	     -3.64366554	     -6.38408713	    -11.30390902	      3.05223103	     -8.40559720	      7.49393573	    -12.15081421	      7.71898430	      3.92055984	    -15.38866568	      6.87969260	     -3.52996185	      7.60701024	      1.87251805	     -2.93309010	     -1.56559480
      0.56650000	     -3.46168750	      4.66506583	      3.24414363	     -0.78061345	      0.97461251	      0.30138294	     28.30771923	     -3.49764323	     -6.35925100	    -11.76849805	      2.61957056	     -8.60566639	      7.48208235	    -11.94453645	      7.58580248	      3.76451574	    -16.26675825	      6.30252261	     -3.61492838	      7.70098604	      2.02503103	     -2.76417827	     -1.53829209
      0.57066667	     -3.55694764	      4.55841383	      3.21856618	     -0.77449346	      0.97459479	      0.30186181	     28.30676602	     -3.33884796	     -6.19906891	    -12.22235846	      2.23409070	     -9.21966641	      7.45232094	    -11.61133445	      7.45648344	      3.53407772	    -17.29076690	      5.80913712	     -3.65313659	      8.08409487	      2.22198549	     -2.62392178	     -1.49577030
      0.57483333	     -3.58234895	      4.41998748	      3.18581905	     -0.76826502	      0.97473219	      0.30229162	     28.22129993	     -3.16840011	     -6.18568662	    -12.67173405	      1.86690997	     -9.34256872	      7.43559931	    -11.36608622	      7.29494071	      3.34722688	    -18.26819803	      5.12100529	     -3.76103109	      8.23921009	      2.34212486	     -2.42341341	     -1.46208133
      0.57900000	     -3.63491577	      4.26947371	      3.16132723	     -0.76210968	      0.97485854	      0.30278209	     28.14522111	     -2.97042982	     -6.07382477	    -13.08427236	      1.54305044	     -9.80668799	      6.96602831	    -11.00483536	      7.10354738	      3.06303642	    -19.39042940	      4.44431151	     -3.86912342	     13.68144835	      2.49483706	     -2.22900955	     -1.40021555
      0.58316667	     -3.68393479	      4.15109820	      3.12300493	     -0.75595751	      0.97502217	      0.30323122	     28.09450553	     -2.82055138	     -6.03514083	    -13.55563985	      1.24153206	     -9.96416222	      6.95178147	    -10.63777636	      6.96141998	      2.83919543	    -20.51787287	      3.68788138	     -3.99532342	     13.73519397	      2.63976703	     -2.06465169	     -1.36444590
      0.58733333	     -3.72741210	      4.00265135	      3.08723030	     -0.74980643	      0.97523158	      0.30368621	     28.02332742	     -2.64071409	     -5.99349279	    -14.00674877	      0.99450627	    -10.15842607	      6.92825611	    -10.23727987	      6.78119519	      2.60123265	    -21.70833022	      2.91832271	     -4.11579251	     13.84348285	      2.77854135	     -1.86128820	     -1.31368672
      0.59150000	     -3.75049848	      3.84493585	      3.05203454	     -0.74367767	      0.97549702	      0.30415373	     27.92776499	     -2.45309241	     -5.96812508	    -14.45740405	      0.79644371	    -10.33130002	      6.89601935	     -9.81484314	      6.58264105	      2.34173421	    -22.95857067	      2.10184573	     -4.22883226	     14.00137730	      2.88756544	     -1.64869624	     -1.26388132
      0.59566667	     -3.76825595	      3.67857857	      3.01440550	     -0.73757515	      0.97579522	      0.30463580	     27.82307891	     -2.25605778	     -5.94632840	    -14.90349039	      0.64244062	    -10.47375105	      6.85522681	     -9.35814003	      6.36891569	      2.06997399	    -24.26119006	      1.23185303	     -4.34723692	     14.20013222	      2.98736532	     -1.42492159	     -1.21030613
      0.59983333	     -3.80506310	      3.51357008	      2.96679093	     -0.73154911	      0.97605633	      0.30514299	     27.76344576	     -2.05799846	     -5.92070473	    -15.39669619	      0.50787132	    -10.71516262	      6.75958532	     -8.82751363	      6.15149504	      1.76725429	    -25.64627092	      0.37008144	     -4.44741920	     14.66093189	      3.09478372	     -1.19898388	     -1.14461416
      0.60400000	     -3.73282150	      3.28774543	      2.94302532	     -0.72546617	      0.97653614	      0.30564901	     27.52119444	     -1.80134993	     -5.94289383	    -15.77293236	      0.44155872	    -10.78701295	      5.71189709	     -8.39664096	      5.84288234	      1.46909668	    -27.03164234	     -0.65045938	     -4.62221510	     19.45449930	      3.08205071	     -0.90535533	     -1.08942354
      0.60816667	     -3.72283445	      3.11208673	      2.90323530	     -0.71947471	      0.97692533	      0.30615687	     27.38352017	     -1.59843377	     -5.95253807	    -16.21770076	      0.45344310	    -10.75312180	      5.70270174	     -7.85486916	      5.59894504	      1.18286248	    -28.48068284	     -1.68307284	     -4.77144610	     19.47646267	      3.13314047	     -0.68303837	     -1.04676839
